<?xml version="1.0" encoding="UTF-8" standalone="no"?>
<!DOCTYPE svg PUBLIC "-//W3C//DTD SVG 1.1//EN"
 "http://www.w3.org/Graphics/SVG/1.1/DTD/svg11.dtd">
<!-- Generated by graphviz version 2.50.0 (20211204.2007)
 -->
<!-- Title: G Pages: 1 -->
<svg width="1379pt" height="418pt"
 viewBox="0.00 0.00 1379.20 418.20" xmlns="http://www.w3.org/2000/svg" xmlns:xlink="http://www.w3.org/1999/xlink">
<g id="graph0" class="graph" transform="scale(1 1) rotate(0) translate(21.6 396.6)">
<title>G</title>
<polygon fill="#111111" stroke="transparent" points="-21.6,21.6 -21.6,-396.6 1357.6,-396.6 1357.6,21.6 -21.6,21.6"/>
<!-- Cache.ts -->
<g id="node1" class="node">
<title>Cache.ts</title>
<path fill="none" stroke="#ff6c60" d="M196.33,-319C196.33,-319 141.67,-319 141.67,-319 137.83,-319 134,-315.17 134,-311.33 134,-311.33 134,-303.67 134,-303.67 134,-299.83 137.83,-296 141.67,-296 141.67,-296 196.33,-296 196.33,-296 200.17,-296 204,-299.83 204,-303.67 204,-303.67 204,-311.33 204,-311.33 204,-315.17 200.17,-319 196.33,-319"/>
<text text-anchor="middle" x="169" y="-303.8" font-family="Arial" font-size="14.00" fill="#ff6c60">Cache.ts</text>
</g>
<!-- Config/Settings.ts -->
<g id="node2" class="node">
<title>Config/Settings.ts</title>
<path fill="none" stroke="#ff6c60" d="M391.33,-221C391.33,-221 284.67,-221 284.67,-221 280.83,-221 277,-217.17 277,-213.33 277,-213.33 277,-205.67 277,-205.67 277,-201.83 280.83,-198 284.67,-198 284.67,-198 391.33,-198 391.33,-198 395.17,-198 399,-201.83 399,-205.67 399,-205.67 399,-213.33 399,-213.33 399,-217.17 395.17,-221 391.33,-221"/>
<text text-anchor="middle" x="338" y="-205.8" font-family="Arial" font-size="14.00" fill="#ff6c60">Config/Settings.ts</text>
</g>
<!-- Cache.ts&#45;&gt;Config/Settings.ts -->
<g id="edge1" class="edge">
<title>Cache.ts&#45;&gt;Config/Settings.ts</title>
<path fill="none" stroke="#757575" d="M196.7,-295.87C210.49,-289.3 227.26,-280.43 241,-270.5 259.09,-257.43 258.46,-247.92 277,-235.5 282.64,-231.72 288.92,-228.29 295.23,-225.25"/>
<polygon fill="#757575" stroke="#757575" points="296.77,-228.4 304.43,-221.08 293.88,-222.02 296.77,-228.4"/>
</g>
<!-- DateFallback.ts -->
<g id="node3" class="node">
<title>DateFallback.ts</title>
<path fill="none" stroke="#ff6c60" d="M1308.33,-281C1308.33,-281 1213.67,-281 1213.67,-281 1209.83,-281 1206,-277.17 1206,-273.33 1206,-273.33 1206,-265.67 1206,-265.67 1206,-261.83 1209.83,-258 1213.67,-258 1213.67,-258 1308.33,-258 1308.33,-258 1312.17,-258 1316,-261.83 1316,-265.67 1316,-265.67 1316,-273.33 1316,-273.33 1316,-277.17 1312.17,-281 1308.33,-281"/>
<text text-anchor="middle" x="1261" y="-265.8" font-family="Arial" font-size="14.00" fill="#ff6c60">DateFallback.ts</text>
</g>
<!-- Cache.ts&#45;&gt;DateFallback.ts -->
<g id="edge2" class="edge">
<title>Cache.ts&#45;&gt;DateFallback.ts</title>
<path fill="none" stroke="#757575" d="M204.14,-308.11C248.9,-308.8 329.83,-309.7 399,-308.5 732.93,-302.72 816.99,-307.9 1150,-282.5 1164.8,-281.37 1180.68,-279.74 1195.63,-278.02"/>
<polygon fill="#757575" stroke="#757575" points="1196.3,-281.46 1205.82,-276.81 1195.47,-274.51 1196.3,-281.46"/>
</g>
<!-- Task.ts -->
<g id="node4" class="node">
<title>Task.ts</title>
<path fill="none" stroke="#ff6c60" d="M1101.33,-190C1101.33,-190 1057.67,-190 1057.67,-190 1053.83,-190 1050,-186.17 1050,-182.33 1050,-182.33 1050,-174.67 1050,-174.67 1050,-170.83 1053.83,-167 1057.67,-167 1057.67,-167 1101.33,-167 1101.33,-167 1105.17,-167 1109,-170.83 1109,-174.67 1109,-174.67 1109,-182.33 1109,-182.33 1109,-186.17 1105.17,-190 1101.33,-190"/>
<text text-anchor="middle" x="1079.5" y="-174.8" font-family="Arial" font-size="14.00" fill="#ff6c60">Task.ts</text>
</g>
<!-- Cache.ts&#45;&gt;Task.ts -->
<g id="edge3" class="edge">
<title>Cache.ts&#45;&gt;Task.ts</title>
<path fill="none" stroke="#757575" d="M204,-305.52C315.38,-298.58 678.93,-272.37 973,-210.5 995.59,-205.75 1020.32,-198.37 1040.15,-191.89"/>
<polygon fill="#757575" stroke="#757575" points="1041.36,-195.18 1049.75,-188.71 1039.15,-188.54 1041.36,-195.18"/>
</g>
<!-- TasksEvents.ts -->
<g id="node5" class="node">
<title>TasksEvents.ts</title>
<path fill="none" stroke="#ff6c60" d="M383.83,-375C383.83,-375 292.17,-375 292.17,-375 288.33,-375 284.5,-371.17 284.5,-367.33 284.5,-367.33 284.5,-359.67 284.5,-359.67 284.5,-355.83 288.33,-352 292.17,-352 292.17,-352 383.83,-352 383.83,-352 387.67,-352 391.5,-355.83 391.5,-359.67 391.5,-359.67 391.5,-367.33 391.5,-367.33 391.5,-371.17 387.67,-375 383.83,-375"/>
<text text-anchor="middle" x="338" y="-359.8" font-family="Arial" font-size="14.00" fill="#ff6c60">TasksEvents.ts</text>
</g>
<!-- Cache.ts&#45;&gt;TasksEvents.ts -->
<g id="edge4" class="edge">
<title>Cache.ts&#45;&gt;TasksEvents.ts</title>
<path fill="none" stroke="#757575" d="M204.2,-313.4C234.25,-321.83 277.56,-336.43 306.46,-347.9"/>
<polygon fill="#757575" stroke="#757575" points="305.46,-351.27 316.04,-351.81 308.11,-344.79 305.46,-351.27"/>
</g>
<!-- Suggestor/Suggestor.ts -->
<g id="node6" class="node">
<title>Suggestor/Suggestor.ts</title>
<path fill="none" stroke="#ff6c60" d="M634.33,-221C634.33,-221 492.67,-221 492.67,-221 488.83,-221 485,-217.17 485,-213.33 485,-213.33 485,-205.67 485,-205.67 485,-201.83 488.83,-198 492.67,-198 492.67,-198 634.33,-198 634.33,-198 638.17,-198 642,-201.83 642,-205.67 642,-205.67 642,-213.33 642,-213.33 642,-217.17 638.17,-221 634.33,-221"/>
<text text-anchor="middle" x="563.5" y="-205.8" font-family="Arial" font-size="14.00" fill="#ff6c60">Suggestor/Suggestor.ts</text>
</g>
<!-- Config/Settings.ts&#45;&gt;Suggestor/Suggestor.ts -->
<g id="edge5" class="edge">
<title>Config/Settings.ts&#45;&gt;Suggestor/Suggestor.ts</title>
<path fill="none" stroke="#757575" d="M399.19,-203.43C422.37,-202.77 449.34,-202.59 474.61,-202.89"/>
<polygon fill="#757575" stroke="#757575" points="474.89,-206.39 484.94,-203.04 474.99,-199.39 474.89,-206.39"/>
</g>
<!-- TaskSerializer/DataviewTaskSerializer.ts -->
<g id="node7" class="node">
<title>TaskSerializer/DataviewTaskSerializer.ts</title>
<path fill="none" stroke="#ff6c60" d="M684.33,-141C684.33,-141 442.67,-141 442.67,-141 438.83,-141 435,-137.17 435,-133.33 435,-133.33 435,-125.67 435,-125.67 435,-121.83 438.83,-118 442.67,-118 442.67,-118 684.33,-118 684.33,-118 688.17,-118 692,-121.83 692,-125.67 692,-125.67 692,-133.33 692,-133.33 692,-137.17 688.17,-141 684.33,-141"/>
<text text-anchor="middle" x="563.5" y="-125.8" font-family="Arial" font-size="14.00" fill="#ff6c60">TaskSerializer/DataviewTaskSerializer.ts</text>
</g>
<!-- Config/Settings.ts&#45;&gt;TaskSerializer/DataviewTaskSerializer.ts -->
<g id="edge6" class="edge">
<title>Config/Settings.ts&#45;&gt;TaskSerializer/DataviewTaskSerializer.ts</title>
<path fill="none" stroke="#757575" d="M355.9,-197.83C374.48,-185.53 405.61,-166.45 435,-155.5 448.03,-150.64 462.17,-146.62 476.12,-143.31"/>
<polygon fill="#757575" stroke="#757575" points="477.26,-146.64 486.24,-141.02 475.71,-139.81 477.26,-146.64"/>
</g>
<!-- TaskSerializer/DefaultTaskSerializer.ts -->
<g id="node8" class="node">
<title>TaskSerializer/DefaultTaskSerializer.ts</title>
<path fill="none" stroke="#ff6c60" d="M965.33,-181C965.33,-181 735.67,-181 735.67,-181 731.83,-181 728,-177.17 728,-173.33 728,-173.33 728,-165.67 728,-165.67 728,-161.83 731.83,-158 735.67,-158 735.67,-158 965.33,-158 965.33,-158 969.17,-158 973,-161.83 973,-165.67 973,-165.67 973,-173.33 973,-173.33 973,-177.17 969.17,-181 965.33,-181"/>
<text text-anchor="middle" x="850.5" y="-165.8" font-family="Arial" font-size="14.00" fill="#ff6c60">TaskSerializer/DefaultTaskSerializer.ts</text>
</g>
<!-- Config/Settings.ts&#45;&gt;TaskSerializer/DefaultTaskSerializer.ts -->
<g id="edge7" class="edge">
<title>Config/Settings.ts&#45;&gt;TaskSerializer/DefaultTaskSerializer.ts</title>
<path fill="none" stroke="#757575" d="M387.1,-197.94C402.33,-194.69 419.29,-191.5 435,-189.5 529.07,-177.51 635.97,-172.56 717.66,-170.58"/>
<polygon fill="#757575" stroke="#757575" points="718.08,-174.07 727.99,-170.35 717.92,-167.08 718.08,-174.07"/>
</g>
<!-- DateFallback.ts&#45;&gt;Config/Settings.ts -->
<g id="edge10" class="edge">
<title>DateFallback.ts&#45;&gt;Config/Settings.ts</title>
<path fill="none" stroke="#757575" d="M1205.66,-270.08C1073.25,-270.8 723.57,-268.61 435,-230.5 421.66,-228.74 407.42,-226.07 394.11,-223.22"/>
<polygon fill="#757575" stroke="#757575" points="394.66,-219.75 384.14,-221.01 393.15,-226.59 394.66,-219.75"/>
</g>
<!-- DateFallback.ts&#45;&gt;Task.ts -->
<g id="edge11" class="edge">
<title>DateFallback.ts&#45;&gt;Task.ts</title>
<path fill="none" stroke="#757575" d="M1205.82,-258.34C1199.07,-255.58 1192.33,-252.58 1186,-249.5 1153.9,-233.9 1118.5,-212.07 1097.95,-196.37"/>
<polygon fill="#757575" stroke="#757575" points="1100.09,-193.6 1090.11,-190.05 1095.7,-199.05 1100.09,-193.6"/>
</g>
<!-- Task.ts&#45;&gt;Config/Settings.ts -->
<g id="edge19" class="edge">
<title>Task.ts&#45;&gt;Config/Settings.ts</title>
<path fill="none" stroke="#757575" d="M1061.1,-166.96C1040.88,-154.24 1006.05,-134.4 973,-125.5 857.5,-94.4 544.92,-61.33 435,-108.5 396.76,-124.91 366.56,-164.87 350.87,-189.32"/>
<polygon fill="#757575" stroke="#757575" points="347.87,-187.51 345.58,-197.85 353.82,-191.2 347.87,-187.51"/>
</g>
<!-- Task.ts&#45;&gt;DateFallback.ts -->
<g id="edge20" class="edge">
<title>Task.ts&#45;&gt;DateFallback.ts</title>
<path fill="none" stroke="#757575" d="M1109.38,-189.62C1130.21,-201.18 1159.25,-218.5 1186,-231.5 1202.34,-239.44 1221.44,-246.88 1236.14,-253.46"/>
<polygon fill="#757575" stroke="#757575" points="1234.99,-256.79 1245.53,-257.87 1237.97,-250.45 1234.99,-256.79"/>
</g>
<!-- Scripting/TasksDate.ts -->
<g id="node13" class="node">
<title>Scripting/TasksDate.ts</title>
<path fill="none" stroke="#ff6c60" d="M1328.33,-190C1328.33,-190 1193.67,-190 1193.67,-190 1189.83,-190 1186,-186.17 1186,-182.33 1186,-182.33 1186,-174.67 1186,-174.67 1186,-170.83 1189.83,-167 1193.67,-167 1193.67,-167 1328.33,-167 1328.33,-167 1332.17,-167 1336,-170.83 1336,-174.67 1336,-174.67 1336,-182.33 1336,-182.33 1336,-186.17 1332.17,-190 1328.33,-190"/>
<text text-anchor="middle" x="1261" y="-174.8" font-family="Arial" font-size="14.00" fill="#ff6c60">Scripting/TasksDate.ts</text>
</g>
<!-- Task.ts&#45;&gt;Scripting/TasksDate.ts -->
<g id="edge21" class="edge">
<title>Task.ts&#45;&gt;Scripting/TasksDate.ts</title>
<path fill="none" stroke="#757575" d="M1109.34,-173.39C1127.46,-172.2 1151.86,-171.66 1175.74,-171.76"/>
<polygon fill="#757575" stroke="#757575" points="1175.89,-175.26 1185.92,-171.84 1175.95,-168.26 1175.89,-175.26"/>
</g>
<!-- Urgency.ts -->
<g id="node14" class="node">
<title>Urgency.ts</title>
<path fill="none" stroke="#ff6c60" d="M1293.33,-149C1293.33,-149 1228.67,-149 1228.67,-149 1224.83,-149 1221,-145.17 1221,-141.33 1221,-141.33 1221,-133.67 1221,-133.67 1221,-129.83 1224.83,-126 1228.67,-126 1228.67,-126 1293.33,-126 1293.33,-126 1297.17,-126 1301,-129.83 1301,-133.67 1301,-133.67 1301,-141.33 1301,-141.33 1301,-145.17 1297.17,-149 1293.33,-149"/>
<text text-anchor="middle" x="1261" y="-133.8" font-family="Arial" font-size="14.00" fill="#ff6c60">Urgency.ts</text>
</g>
<!-- Task.ts&#45;&gt;Urgency.ts -->
<g id="edge22" class="edge">
<title>Task.ts&#45;&gt;Urgency.ts</title>
<path fill="none" stroke="#757575" d="M1108.94,-166.91C1136.27,-158.87 1178.11,-148.98 1210.84,-142.63"/>
<polygon fill="#757575" stroke="#757575" points="1211.49,-146.07 1220.68,-140.79 1210.2,-139.19 1211.49,-146.07"/>
</g>
<!-- lib/PriorityTools.ts -->
<g id="node15" class="node">
<title>lib/PriorityTools.ts</title>
<path fill="none" stroke="#ff6c60" d="M1314.33,-231C1314.33,-231 1207.67,-231 1207.67,-231 1203.83,-231 1200,-227.17 1200,-223.33 1200,-223.33 1200,-215.67 1200,-215.67 1200,-211.83 1203.83,-208 1207.67,-208 1207.67,-208 1314.33,-208 1314.33,-208 1318.17,-208 1322,-211.83 1322,-215.67 1322,-215.67 1322,-223.33 1322,-223.33 1322,-227.17 1318.17,-231 1314.33,-231"/>
<text text-anchor="middle" x="1261" y="-215.8" font-family="Arial" font-size="14.00" fill="#ff6c60">lib/PriorityTools.ts</text>
</g>
<!-- Task.ts&#45;&gt;lib/PriorityTools.ts -->
<g id="edge23" class="edge">
<title>Task.ts&#45;&gt;lib/PriorityTools.ts</title>
<path fill="none" stroke="#757575" d="M1109.34,-179.97C1139.88,-184.96 1188.22,-195.83 1221.88,-205.16"/>
<polygon fill="#757575" stroke="#757575" points="1221.25,-208.61 1231.82,-207.99 1223.17,-201.88 1221.25,-208.61"/>
</g>
<!-- TasksEvents.ts&#45;&gt;Cache.ts -->
<g id="edge27" class="edge">
<title>TasksEvents.ts&#45;&gt;Cache.ts</title>
<path fill="none" stroke="#757575" d="M284.29,-352.15C256.58,-343.66 223.6,-332.27 200.21,-322.97"/>
<polygon fill="#757575" stroke="#757575" points="201.39,-319.67 190.81,-319.12 198.74,-326.15 201.39,-319.67"/>
</g>
<!-- TasksEvents.ts&#45;&gt;Task.ts -->
<g id="edge28" class="edge">
<title>TasksEvents.ts&#45;&gt;Task.ts</title>
<path fill="none" stroke="#757575" d="M391.67,-364.19C503.7,-363.79 771.81,-352.7 973,-263.5 1008.31,-247.85 1041.73,-217.3 1061.15,-197.41"/>
<polygon fill="#757575" stroke="#757575" points="1063.75,-199.76 1068.12,-190.11 1058.68,-194.93 1063.75,-199.76"/>
</g>
<!-- Suggestor/Suggestor.ts&#45;&gt;Config/Settings.ts -->
<g id="edge16" class="edge">
<title>Suggestor/Suggestor.ts&#45;&gt;Config/Settings.ts</title>
<path fill="none" stroke="#757575" d="M484.94,-215.96C460.36,-216.39 433.33,-216.34 409.29,-215.82"/>
<polygon fill="#757575" stroke="#757575" points="409.27,-212.32 399.19,-215.57 409.1,-219.32 409.27,-212.32"/>
</g>
<!-- Suggestor/Suggestor.ts&#45;&gt;Task.ts -->
<g id="edge17" class="edge">
<title>Suggestor/Suggestor.ts&#45;&gt;Task.ts</title>
<path fill="none" stroke="#757575" d="M642.15,-207.43C724.4,-204.88 858,-199.7 973,-190.5 995.22,-188.72 1019.99,-185.95 1039.94,-183.51"/>
<polygon fill="#757575" stroke="#757575" points="1040.4,-186.98 1049.89,-182.28 1039.54,-180.03 1040.4,-186.98"/>
</g>
<!-- Suggestor/Suggestor.ts&#45;&gt;TaskSerializer/DefaultTaskSerializer.ts -->
<g id="edge18" class="edge">
<title>Suggestor/Suggestor.ts&#45;&gt;TaskSerializer/DefaultTaskSerializer.ts</title>
<path fill="none" stroke="#757575" d="M642,-198.62C677.56,-193.63 719.99,-187.68 757.19,-182.46"/>
<polygon fill="#757575" stroke="#757575" points="758.11,-185.86 767.53,-181 757.14,-178.93 758.11,-185.86"/>
</g>
<!-- TaskSerializer/DataviewTaskSerializer.ts&#45;&gt;Task.ts -->
<g id="edge24" class="edge">
<title>TaskSerializer/DataviewTaskSerializer.ts&#45;&gt;Task.ts</title>
<path fill="none" stroke="#757575" d="M692.25,-127.91C773.19,-128.76 879.81,-133.29 973,-148.5 995.67,-152.2 1020.4,-159.07 1040.21,-165.31"/>
<polygon fill="#757575" stroke="#757575" points="1039.21,-168.66 1049.8,-168.4 1041.35,-162 1039.21,-168.66"/>
</g>
<!-- TaskSerializer/DataviewTaskSerializer.ts&#45;&gt;TaskSerializer/DefaultTaskSerializer.ts -->
<g id="edge25" class="edge">
<title>TaskSerializer/DataviewTaskSerializer.ts&#45;&gt;TaskSerializer/DefaultTaskSerializer.ts</title>
<path fill="none" stroke="#757575" d="M646.55,-141.02C681.27,-145.89 721.87,-151.59 757.6,-156.6"/>
<polygon fill="#757575" stroke="#757575" points="757.14,-160.07 767.53,-158 758.12,-153.14 757.14,-160.07"/>
</g>
<!-- TaskSerializer/DefaultTaskSerializer.ts&#45;&gt;Task.ts -->
<g id="edge26" class="edge">
<title>TaskSerializer/DefaultTaskSerializer.ts&#45;&gt;Task.ts</title>
<path fill="none" stroke="#757575" d="M973.31,-174.33C997.33,-175.28 1020.86,-176.21 1039.55,-176.96"/>
<polygon fill="#757575" stroke="#757575" points="1039.55,-180.46 1049.69,-177.36 1039.83,-173.46 1039.55,-180.46"/>
</g>
<!-- Config/SettingsTab.ts -->
<g id="node9" class="node">
<title>Config/SettingsTab.ts</title>
<path fill="none" stroke="#ff6c60" d="M233.33,-261C233.33,-261 104.67,-261 104.67,-261 100.83,-261 97,-257.17 97,-253.33 97,-253.33 97,-245.67 97,-245.67 97,-241.83 100.83,-238 104.67,-238 104.67,-238 233.33,-238 233.33,-238 237.17,-238 241,-241.83 241,-245.67 241,-245.67 241,-253.33 241,-253.33 241,-257.17 237.17,-261 233.33,-261"/>
<text text-anchor="middle" x="169" y="-245.8" font-family="Arial" font-size="14.00" fill="#ff6c60">Config/SettingsTab.ts</text>
</g>
<!-- Config/SettingsTab.ts&#45;&gt;Config/Settings.ts -->
<g id="edge8" class="edge">
<title>Config/SettingsTab.ts&#45;&gt;Config/Settings.ts</title>
<path fill="none" stroke="#757575" d="M218.3,-237.93C237.26,-233.39 259.17,-228.14 278.97,-223.4"/>
<polygon fill="#757575" stroke="#757575" points="279.9,-226.78 288.81,-221.04 278.27,-219.97 279.9,-226.78"/>
</g>
<!-- main.ts -->
<g id="node10" class="node">
<title>main.ts</title>
<path fill="none" stroke="#ff6c60" d="M53.33,-261C53.33,-261 7.67,-261 7.67,-261 3.83,-261 0,-257.17 0,-253.33 0,-253.33 0,-245.67 0,-245.67 0,-241.83 3.83,-238 7.67,-238 7.67,-238 53.33,-238 53.33,-238 57.17,-238 61,-241.83 61,-245.67 61,-245.67 61,-253.33 61,-253.33 61,-257.17 57.17,-261 53.33,-261"/>
<text text-anchor="middle" x="30.5" y="-245.8" font-family="Arial" font-size="14.00" fill="#ff6c60">main.ts</text>
</g>
<!-- Config/SettingsTab.ts&#45;&gt;main.ts -->
<g id="edge9" class="edge">
<title>Config/SettingsTab.ts&#45;&gt;main.ts</title>
<path fill="none" stroke="#757575" d="M96.99,-256.25C88.18,-256.21 79.44,-256.03 71.34,-255.7"/>
<polygon fill="#757575" stroke="#757575" points="71.28,-252.19 61.12,-255.18 70.93,-259.18 71.28,-252.19"/>
</g>
<!-- main.ts&#45;&gt;Cache.ts -->
<g id="edge31" class="edge">
<title>main.ts&#45;&gt;Cache.ts</title>
<path fill="none" stroke="#757575" d="M58.79,-261.1C79.63,-269.95 108.53,-282.23 131.38,-291.94"/>
<polygon fill="#757575" stroke="#757575" points="130.18,-295.23 140.75,-295.92 132.92,-288.79 130.18,-295.23"/>
</g>
<!-- main.ts&#45;&gt;Config/Settings.ts -->
<g id="edge32" class="edge">
<title>main.ts&#45;&gt;Config/Settings.ts</title>
<path fill="none" stroke="#757575" d="M61.16,-238.98C72.27,-235.43 85.09,-231.79 97,-229.5 153.54,-218.64 218.7,-213.68 266.84,-211.41"/>
<polygon fill="#757575" stroke="#757575" points="267.01,-214.9 276.85,-210.96 266.7,-207.91 267.01,-214.9"/>
</g>
<!-- main.ts&#45;&gt;Task.ts -->
<g id="edge34" class="edge">
<title>main.ts&#45;&gt;Task.ts</title>
<path fill="none" stroke="#757575" d="M40.36,-238C73.99,-195.74 198.9,-51.5 337,-51.5 337,-51.5 337,-51.5 564.5,-51.5 746.68,-51.5 805.4,-14.09 973,-85.5 1010.84,-101.62 1044.57,-136.8 1063.21,-158.98"/>
<polygon fill="#757575" stroke="#757575" points="1060.55,-161.25 1069.59,-166.77 1065.96,-156.81 1060.55,-161.25"/>
</g>
<!-- main.ts&#45;&gt;TasksEvents.ts -->
<g id="edge35" class="edge">
<title>main.ts&#45;&gt;TasksEvents.ts</title>
<path fill="none" stroke="#757575" d="M37.51,-261.21C47.32,-279.03 68.57,-312.54 97,-328.5 151.44,-359.07 223.34,-365.97 274.2,-366.36"/>
<polygon fill="#757575" stroke="#757575" points="274.4,-369.86 284.4,-366.36 274.4,-362.86 274.4,-369.86"/>
</g>
<!-- main.ts&#45;&gt;Config/SettingsTab.ts -->
<g id="edge33" class="edge">
<title>main.ts&#45;&gt;Config/SettingsTab.ts</title>
<path fill="none" stroke="#757575" d="M61.12,-243.82C68.95,-243.33 77.79,-243.01 86.95,-242.86"/>
<polygon fill="#757575" stroke="#757575" points="87.02,-246.36 96.99,-242.75 86.95,-239.36 87.02,-246.36"/>
</g>
<!-- Query/Filter/BooleanField.ts -->
<g id="node11" class="node">
<title>Query/Filter/BooleanField.ts</title>
<path fill="none" stroke="#ff6c60" d="M935.33,-23C935.33,-23 765.67,-23 765.67,-23 761.83,-23 758,-19.17 758,-15.33 758,-15.33 758,-7.67 758,-7.67 758,-3.83 761.83,0 765.67,0 765.67,0 935.33,0 935.33,0 939.17,0 943,-3.83 943,-7.67 943,-7.67 943,-15.33 943,-15.33 943,-19.17 939.17,-23 935.33,-23"/>
<text text-anchor="middle" x="850.5" y="-7.8" font-family="Arial" font-size="14.00" fill="#ff6c60">Query/Filter/BooleanField.ts</text>
</g>
<!-- Query/Filter/BooleanField.ts&#45;&gt;Task.ts -->
<g id="edge13" class="edge">
<title>Query/Filter/BooleanField.ts&#45;&gt;Task.ts</title>
<path fill="none" stroke="#757575" d="M941.69,-23.09C952.73,-26.7 963.46,-31.39 973,-37.5 1019.93,-67.55 1053.51,-126.29 1068.97,-157.63"/>
<polygon fill="#757575" stroke="#757575" points="1065.87,-159.26 1073.34,-166.77 1072.18,-156.24 1065.87,-159.26"/>
</g>
<!-- Query/FilterParser.ts -->
<g id="node12" class="node">
<title>Query/FilterParser.ts</title>
<path fill="none" stroke="#ff6c60" d="M1142.33,-23C1142.33,-23 1016.67,-23 1016.67,-23 1012.83,-23 1009,-19.17 1009,-15.33 1009,-15.33 1009,-7.67 1009,-7.67 1009,-3.83 1012.83,0 1016.67,0 1016.67,0 1142.33,0 1142.33,0 1146.17,0 1150,-3.83 1150,-7.67 1150,-7.67 1150,-15.33 1150,-15.33 1150,-19.17 1146.17,-23 1142.33,-23"/>
<text text-anchor="middle" x="1079.5" y="-7.8" font-family="Arial" font-size="14.00" fill="#ff6c60">Query/FilterParser.ts</text>
</g>
<!-- Query/Filter/BooleanField.ts&#45;&gt;Query/FilterParser.ts -->
<g id="edge12" class="edge">
<title>Query/Filter/BooleanField.ts&#45;&gt;Query/FilterParser.ts</title>
<path fill="none" stroke="#757575" d="M943.18,-4.86C961.57,-4.67 980.76,-4.72 998.71,-5.02"/>
<polygon fill="#757575" stroke="#757575" points="998.77,-8.52 1008.83,-5.22 998.9,-1.52 998.77,-8.52"/>
</g>
<!-- Query/FilterParser.ts&#45;&gt;Query/Filter/BooleanField.ts -->
<g id="edge14" class="edge">
<title>Query/FilterParser.ts&#45;&gt;Query/Filter/BooleanField.ts</title>
<path fill="none" stroke="#757575" d="M1008.83,-17.78C991.26,-18.18 972.04,-18.32 953.25,-18.22"/>
<polygon fill="#757575" stroke="#757575" points="953.2,-14.72 943.18,-18.14 953.15,-21.72 953.2,-14.72"/>
</g>
<!-- Scripting/TasksDate.ts&#45;&gt;Task.ts -->
<g id="edge15" class="edge">
<title>Scripting/TasksDate.ts&#45;&gt;Task.ts</title>
<path fill="none" stroke="#757575" d="M1185.92,-185.16C1163.07,-185.43 1138.81,-185.1 1119.34,-184.17"/>
<polygon fill="#757575" stroke="#757575" points="1119.52,-180.68 1109.34,-183.61 1119.13,-187.67 1119.52,-180.68"/>
</g>
<!-- Urgency.ts&#45;&gt;Task.ts -->
<g id="edge29" class="edge">
<title>Urgency.ts&#45;&gt;Task.ts</title>
<path fill="none" stroke="#757575" d="M1231.82,-149.01C1201.55,-157.94 1153.23,-169.18 1119.35,-175.3"/>
<polygon fill="#757575" stroke="#757575" points="1118.6,-171.88 1109.34,-177.03 1119.79,-178.78 1118.6,-171.88"/>
</g>
<!-- lib/PriorityTools.ts&#45;&gt;Task.ts -->
<g id="edge30" class="edge">
<title>lib/PriorityTools.ts&#45;&gt;Task.ts</title>
<path fill="none" stroke="#757575" d="M1199.74,-212.15C1172.91,-206.65 1142.14,-199.36 1118.57,-192.83"/>
<polygon fill="#757575" stroke="#757575" points="1119.52,-189.46 1108.94,-190.09 1117.6,-196.19 1119.52,-189.46"/>
</g>
</g>
</svg>
